<svg width="18" height="22" viewBox="0 0 18 22" fill="none" xmlns="http://www.w3.org/2000/svg">
<path d="M7.63636 7.10938C7.56676 6.86742 7.46899 6.65365 7.34304 6.46804C7.21709 6.27912 7.06297 6.12003 6.88068 5.99077C6.7017 5.85819 6.49621 5.7571 6.2642 5.6875C6.03551 5.6179 5.78196 5.5831 5.50355 5.5831C4.98319 5.5831 4.52581 5.71236 4.13139 5.97088C3.74029 6.2294 3.43537 6.60559 3.21662 7.09943C2.99787 7.58996 2.88849 8.18987 2.88849 8.89915C2.88849 9.60843 2.99621 10.2116 3.21165 10.7088C3.42708 11.206 3.73201 11.5855 4.12642 11.8473C4.52083 12.1058 4.98651 12.2351 5.52344 12.2351C6.01065 12.2351 6.42661 12.1489 6.77131 11.9766C7.11932 11.8009 7.38447 11.554 7.56676 11.2358C7.75237 10.9176 7.84517 10.5414 7.84517 10.1072L8.28267 10.1719H5.65767V8.55114H9.91832V9.83381C9.91832 10.7287 9.7294 11.4976 9.35156 12.1406C8.97372 12.7803 8.45336 13.2741 7.79048 13.6222C7.1276 13.9669 6.36861 14.1392 5.51349 14.1392C4.55895 14.1392 3.72041 13.9287 2.99787 13.5078C2.27533 13.0836 1.71188 12.482 1.30753 11.7031C0.906487 10.9209 0.705966 9.9929 0.705966 8.91903C0.705966 8.09375 0.825284 7.35795 1.06392 6.71165C1.30587 6.06203 1.64394 5.51184 2.07812 5.06108C2.51231 4.61032 3.01776 4.26728 3.59446 4.03196C4.17116 3.79664 4.79593 3.67898 5.46875 3.67898C6.04545 3.67898 6.58239 3.76349 7.07955 3.93253C7.5767 4.09825 8.01752 4.33357 8.40199 4.63849C8.78977 4.94342 9.1063 5.30634 9.35156 5.72727C9.59683 6.14489 9.75426 6.60559 9.82386 7.10938H7.63636Z" fill="black"/>
<path d="M17.8686 12.3828H15.6911C15.6513 12.1011 15.5701 11.8509 15.4474 11.6321C15.3248 11.41 15.1674 11.2211 14.9751 11.0653C14.7829 10.9096 14.5608 10.7902 14.3089 10.7074C14.0604 10.6245 13.7902 10.5831 13.4986 10.5831C12.9716 10.5831 12.5125 10.714 12.1214 10.9759C11.7304 11.2344 11.4271 11.6122 11.2116 12.1094C10.9962 12.6032 10.8885 13.2031 10.8885 13.9091C10.8885 14.6349 10.9962 15.2448 11.2116 15.7386C11.4304 16.2325 11.7353 16.6054 12.1264 16.8572C12.5175 17.1091 12.9699 17.2351 13.4837 17.2351C13.772 17.2351 14.0388 17.197 14.2841 17.1207C14.5327 17.0445 14.7531 16.9335 14.9453 16.7876C15.1375 16.6385 15.2966 16.4579 15.4226 16.2457C15.5518 16.0336 15.6413 15.7917 15.6911 15.5199L17.8686 15.5298C17.8123 15.9972 17.6714 16.4479 17.446 16.8821C17.224 17.313 16.924 17.6991 16.5462 18.0405C16.1716 18.3786 15.7242 18.647 15.2038 18.8459C14.6868 19.0414 14.1018 19.1392 13.4489 19.1392C12.5407 19.1392 11.7287 18.9337 11.0128 18.5227C10.3002 18.1117 9.73674 17.5168 9.32244 16.7379C8.91146 15.959 8.70597 15.0161 8.70597 13.9091C8.70597 12.7988 8.91477 11.8542 9.33239 11.0753C9.75 10.2964 10.3168 9.70312 11.0327 9.29545C11.7486 8.88447 12.554 8.67898 13.4489 8.67898C14.0388 8.67898 14.5857 8.76184 15.0895 8.92756C15.5966 9.09328 16.0457 9.33523 16.4368 9.65341C16.8279 9.96828 17.1461 10.3544 17.3913 10.8118C17.6399 11.2692 17.799 11.7929 17.8686 12.3828Z" fill="black"/>
</svg>
