<svg width="24" height="24" viewBox="0 0 24 24" fill="none" xmlns="http://www.w3.org/2000/svg">
<path d="M22.0819 14.0822C21.4763 16.0593 20.2624 17.7951 18.6132 19.0425C17.1652 20.1323 15.4421 20.797 13.6373 20.9619C11.8326 21.1268 10.0175 20.7855 8.396 19.9762C6.77446 19.1668 5.41057 17.9216 4.45743 16.3802C3.50428 14.8388 2.99961 13.0623 3.00004 11.25C2.9936 9.13468 3.68126 7.07565 4.95755 5.38874C6.20492 3.73948 7.9407 2.52566 9.91786 1.91999C10.0482 1.87987 10.187 1.87602 10.3193 1.90888C10.4516 1.94173 10.5725 2.01004 10.6689 2.10645C10.7653 2.20286 10.8336 2.32373 10.8665 2.45607C10.8993 2.5884 10.8955 2.72718 10.8554 2.85749C10.423 4.28758 10.3868 5.80817 10.7505 7.25724C11.1142 8.7063 11.8642 10.0296 12.9206 11.086C13.977 12.1424 15.3003 12.8924 16.7494 13.2561C18.1984 13.6198 19.719 13.5836 21.1491 13.1512C21.2794 13.1111 21.4182 13.1073 21.5505 13.1401C21.6829 13.173 21.8037 13.2413 21.9001 13.3377C21.9966 13.4341 22.0649 13.555 22.0977 13.6873C22.1306 13.8196 22.1267 13.9584 22.0866 14.0887L22.0819 14.0822Z" fill="black"/>
</svg>
