<svg width="24" height="24" viewBox="0 0 24 24" fill="none" xmlns="http://www.w3.org/2000/svg">
<path d="M12 16.5C10.8069 16.4987 9.66311 16.0241 8.81948 15.1805C7.97585 14.3369 7.50132 13.1931 7.5 12C7.5 9.519 9.519 7.5 12 7.5C14.481 7.5 16.5 9.519 16.5 12C16.5 14.481 14.481 16.5 12 16.5Z" fill="white"/>
<path fill-rule="evenodd" clip-rule="evenodd" d="M12 3C12.1326 3 12.2598 3.05268 12.3536 3.14645C12.4473 3.24021 12.5 3.36739 12.5 3.5V5.5C12.5 5.63261 12.4473 5.75979 12.3536 5.85355C12.2598 5.94732 12.1326 6 12 6C11.8674 6 11.7402 5.94732 11.6464 5.85355C11.5527 5.75979 11.5 5.63261 11.5 5.5V3.5C11.5 3.36739 11.5527 3.24021 11.6464 3.14645C11.7402 3.05268 11.8674 3 12 3ZM18 12C18 11.8674 18.0527 11.7402 18.1464 11.6464C18.2402 11.5527 18.3674 11.5 18.5 11.5H20.5C20.6326 11.5 20.7598 11.5527 20.8536 11.6464C20.9473 11.7402 21 11.8674 21 12C21 12.1326 20.9473 12.2598 20.8536 12.3536C20.7598 12.4473 20.6326 12.5 20.5 12.5H18.5C18.3674 12.5 18.2402 12.4473 18.1464 12.3536C18.0527 12.2598 18 12.1326 18 12ZM3 12C3 11.8674 3.05268 11.7402 3.14645 11.6464C3.24021 11.5527 3.36739 11.5 3.5 11.5H5.5C5.63261 11.5 5.75979 11.5527 5.85355 11.6464C5.94732 11.7402 6 11.8674 6 12C6 12.1326 5.94732 12.2598 5.85355 12.3536C5.75979 12.4473 5.63261 12.5 5.5 12.5H3.5C3.36739 12.5 3.24021 12.4473 3.14645 12.3536C3.05268 12.2598 3 12.1326 3 12ZM12 18C12.1326 18 12.2598 18.0527 12.3536 18.1464C12.4473 18.2402 12.5 18.3674 12.5 18.5V20.5C12.5 20.6326 12.4473 20.7598 12.3536 20.8536C12.2598 20.9473 12.1326 21 12 21C11.8674 21 11.7402 20.9473 11.6464 20.8536C11.5527 20.7598 11.5 20.6326 11.5 20.5V18.5C11.5 18.3674 11.5527 18.2402 11.6464 18.1464C11.7402 18.0527 11.8674 18 12 18ZM18.354 5.646C18.4006 5.69245 18.4375 5.74762 18.4627 5.80837C18.4879 5.86911 18.5009 5.93423 18.5009 6C18.5009 6.06577 18.4879 6.13089 18.4627 6.19163C18.4375 6.25238 18.4006 6.30755 18.354 6.354L16.854 7.854C16.7601 7.94789 16.6328 8.00063 16.5 8.00063C16.3672 8.00063 16.2399 7.94789 16.146 7.854C16.0521 7.76011 15.9994 7.63278 15.9994 7.5C15.9994 7.36722 16.0521 7.23989 16.146 7.146L17.646 5.646C17.6924 5.59944 17.7476 5.56249 17.8084 5.53729C17.8691 5.51208 17.9342 5.49911 18 5.49911C18.0658 5.49911 18.1309 5.51208 18.1916 5.53729C18.2524 5.56249 18.3076 5.59944 18.354 5.646ZM7.854 16.146C7.90056 16.1924 7.93751 16.2476 7.96271 16.3084C7.98792 16.3691 8.00089 16.4342 8.00089 16.5C8.00089 16.5658 7.98792 16.6309 7.96271 16.6916C7.93751 16.7524 7.90056 16.8076 7.854 16.854L6.354 18.354C6.26011 18.4479 6.13278 18.5006 6 18.5006C5.86722 18.5006 5.73989 18.4479 5.646 18.354C5.55211 18.2601 5.49937 18.1328 5.49937 18C5.49937 17.8672 5.55211 17.7399 5.646 17.646L7.146 16.146C7.19245 16.0994 7.24762 16.0625 7.30837 16.0373C7.36911 16.0121 7.43423 15.9991 7.5 15.9991C7.56577 15.9991 7.63089 16.0121 7.69163 16.0373C7.75238 16.0625 7.80755 16.0994 7.854 16.146ZM5.646 5.646C5.69245 5.59944 5.74762 5.56249 5.80837 5.53729C5.86911 5.51208 5.93423 5.49911 6 5.49911C6.06577 5.49911 6.13089 5.51208 6.19163 5.53729C6.25238 5.56249 6.30755 5.59944 6.354 5.646L7.854 7.146C7.94789 7.23989 8.00063 7.36722 8.00063 7.5C8.00063 7.63278 7.94789 7.76011 7.854 7.854C7.76011 7.94789 7.63278 8.00063 7.5 8.00063C7.36722 8.00063 7.23989 7.94789 7.146 7.854L5.646 6.354C5.59944 6.30755 5.56249 6.25238 5.53729 6.19163C5.51208 6.13089 5.49911 6.06577 5.49911 6C5.49911 5.93423 5.51208 5.86911 5.53729 5.80837C5.56249 5.74762 5.59944 5.69245 5.646 5.646ZM16.146 16.146C16.1924 16.0994 16.2476 16.0625 16.3084 16.0373C16.3691 16.0121 16.4342 15.9991 16.5 15.9991C16.5658 15.9991 16.6309 16.0121 16.6916 16.0373C16.7524 16.0625 16.8076 16.0994 16.854 16.146L18.354 17.646C18.4005 17.6925 18.4374 17.7477 18.4625 17.8084C18.4877 17.8692 18.5006 17.9343 18.5006 18C18.5006 18.0657 18.4877 18.1308 18.4625 18.1916C18.4374 18.2523 18.4005 18.3075 18.354 18.354C18.3075 18.4005 18.2523 18.4374 18.1916 18.4625C18.1308 18.4877 18.0657 18.5006 18 18.5006C17.9343 18.5006 17.8692 18.4877 17.8084 18.4625C17.7477 18.4374 17.6925 18.4005 17.646 18.354L16.146 16.854C16.0994 16.8076 16.0625 16.7524 16.0373 16.6916C16.0121 16.6309 15.9991 16.5658 15.9991 16.5C15.9991 16.4342 16.0121 16.3691 16.0373 16.3084C16.0625 16.2476 16.0994 16.1924 16.146 16.146Z" fill="white"/>
</svg>
